<svg width="480" height="480" viewBox="0 0 480 480" xmlns="http://www.w3.org/2000/svg">
  <circle cx="240" cy="240" r="220" fill="#0B5643" />
  <rect x="145" y="150" width="70" height="180" rx="14" fill="#FAFAF8" />
  <rect x="145" y="150" width="70" height="48" rx="14" fill="#5DCAA5" />
  <rect x="168" y="128" width="24" height="26" rx="5" fill="#FAFAF8" />
  <rect x="222" y="190" width="58" height="140" rx="10" fill="#FAFAF8" opacity="0.95" />
  <rect x="222" y="190" width="58" height="16" rx="6" fill="#5DCAA5" opacity="0.95" />
  <rect x="222" y="314" width="58" height="16" rx="6" fill="#5DCAA5" opacity="0.95" />
  <path d="M298 250 h70 l8 110 a16 16 0 0 1 -16 16 h-54 a16 16 0 0 1 -16 -16 z" fill="#5DCAA5" opacity="0.9" />
  <rect x="292" y="235" width="82" height="20" rx="6" fill="#0F6E56" />
</svg>
